<?xml version="1.0" standalone="no"?>
<?xml-stylesheet href="wheel.css" type="text/css"?>
<!DOCTYPE svg PUBLIC "-//W3C//DTD SVG 1.1//EN"
"http://www.w3.org/Graphics/SVG/1.1/DTD/svg11.dtd">
<svg version="1.1" viewBox="0 0 380 380" xmlns="http://www.w3.org/2000/svg"><path class="default" d="&#10;M 190.0,10.0&#10;A180,180 0 0 1 199.116850391,10.2310287092&#10;L 194.558425195,100.115514355&#10;A90,90 0 0 0 190.0,100.0&#10;Z&#10;"><title>hplip &#10007;</title></path><path class="default" d="&#10;M 199.116850391,10.2310287092&#10;A180,180 0 0 1 208.210297958,10.9235217895&#10;L 199.105148979,100.461760895&#10;A90,90 0 0 0 194.558425195,100.115514355&#10;Z&#10;"><title>python-setuptools &#10007;</title></path><path class="default" d="&#10;M 208.210297958,10.9235217895&#10;A180,180 0 0 1 217.256999951,12.0757016209&#10;L 203.628499975,101.03785081&#10;A90,90 0 0 0 199.105148979,100.461760895&#10;Z&#10;"><title>libxml2 &#10007;</title></path><path class="default" d="&#10;M 217.256999951,12.0757016209&#10;A180,180 0 0 1 226.233733616,13.6846105746&#10;L 208.116866808,101.842305287&#10;A90,90 0 0 0 203.628499975,101.03785081&#10;Z&#10;"><title>rpm &#10007;</title></path><path class="default" d="&#10;M 226.233733616,13.6846105746&#10;A180,180 0 0 1 235.117455807,15.7461186041&#10;L 212.558727903,102.873059302&#10;A90,90 0 0 0 208.116866808,101.842305287&#10;Z&#10;"><title>python-slip &#10007;</title></path><path class="default" d="&#10;M 235.117455807,15.7461186041&#10;A180,180 0 0 1 243.885362135,18.254933848&#10;L 216.942681068,104.127466924&#10;A90,90 0 0 0 212.558727903,102.873059302&#10;Z&#10;"><title>python &#10007;</title></path><path class="default" d="&#10;M 243.885362135,18.254933848&#10;A180,180 0 0 1 252.514945512,21.2046162135&#10;L 221.257472756,105.602308107&#10;A90,90 0 0 0 216.942681068,104.127466924&#10;Z&#10;"><title>dbus-python &#10007;</title></path><path class="default" d="&#10;M 252.514945512,21.2046162135&#10;A180,180 0 0 1 260.98405392,24.5875939084&#10;L 225.49202696,107.293796954&#10;A90,90 0 0 0 221.257472756,105.602308107&#10;Z&#10;"><title>devassistant &#10007;</title></path><path class="default" d="&#10;M 260.98405392,24.5875939084&#10;A180,180 0 0 1 269.27094728,28.3951828773&#10;L 229.63547364,109.197591439&#10;A90,90 0 0 0 225.49202696,107.293796954&#10;Z&#10;"><title>pygtk2 &#10007;</title></path><path class="default" d="&#10;M 269.27094728,28.3951828773&#10;A180,180 0 0 1 277.354353256,32.617609094&#10;L 233.677176628,111.308804547&#10;A90,90 0 0 0 229.63547364,109.197591439&#10;Z&#10;"><title>libreport &#10007;</title></path><path class="default" d="&#10;M 277.354353256,32.617609094&#10;A180,180 0 0 1 285.213521859,37.2440336509&#10;L 237.606760929,113.622016825&#10;A90,90 0 0 0 233.677176628,111.308804547&#10;Z&#10;"><title>python-pip &#10007;</title></path><path class="default" d="&#10;M 285.213521859,37.2440336509&#10;A180,180 0 0 1 292.828278717,42.2625805827&#10;L 241.414139359,116.131290291&#10;A90,90 0 0 0 237.606760929,113.622016825&#10;Z&#10;"><title>unbound &#10007;</title></path><path class="default" d="&#10;M 292.828278717,42.2625805827&#10;A180,180 0 0 1 300.179076859,47.6603673512&#10;L 245.089538429,118.830183676&#10;A90,90 0 0 0 241.414139359,116.131290291&#10;Z&#10;"><title>setroubleshoot &#10007;</title></path><path class="default" d="&#10;M 300.179076859,47.6603673512&#10;A180,180 0 0 1 307.24704689,53.4235379153&#10;L 248.623523445,121.711768958&#10;A90,90 0 0 0 245.089538429,118.830183676&#10;Z&#10;"><title>python-xpyb &#10007;</title></path><path class="default" d="&#10;M 307.24704689,53.4235379153&#10;A180,180 0 0 1 314.014045434,59.5372982988&#10;L 252.007022717,124.768649149&#10;A90,90 0 0 0 248.623523445,121.711768958&#10;Z&#10;"><title>python-six &#10007;</title></path><path class="default" d="&#10;M 314.014045434,59.5372982988&#10;A180,180 0 0 1 320.462701701,65.9859545664&#10;L 255.231350851,127.992977283&#10;A90,90 0 0 0 252.007022717,124.768649149&#10;Z&#10;"><title>python-systemd &#10007;</title></path><path class="default" d="&#10;M 320.462701701,65.9859545664&#10;A180,180 0 0 1 326.576462085,72.75295311&#10;L 258.288231042,131.376476555&#10;A90,90 0 0 0 255.231350851,127.992977283&#10;Z&#10;"><title>pygobject2 &#10007;</title></path><path class="default" d="&#10;M 326.576462085,72.75295311&#10;A180,180 0 0 1 332.339632649,79.8209231414&#10;L 261.169816324,134.910461571&#10;A90,90 0 0 0 258.288231042,131.376476555&#10;Z&#10;"><title>nfs-utils &#10007;</title></path><path class="default" d="&#10;M 332.339632649,79.8209231414&#10;A180,180 0 0 1 337.737419417,87.1717212829&#10;L 263.868709709,138.585860641&#10;A90,90 0 0 0 261.169816324,134.910461571&#10;Z&#10;"><title>audit &#10007;</title></path><path class="default" d="&#10;M 337.737419417,87.1717212829&#10;A180,180 0 0 1 342.755966349,94.7864781411&#10;L 266.377983175,142.393239071&#10;A90,90 0 0 0 263.868709709,138.585860641&#10;Z&#10;"><title>devassistant-dap-devassistant &#10007;</title></path><path class="default" d="&#10;M 342.755966349,94.7864781411&#10;A180,180 0 0 1 347.382390906,102.645646744&#10;L 268.691195453,146.322823372&#10;A90,90 0 0 0 266.377983175,142.393239071&#10;Z&#10;"><title>python-decorator &#10007;</title></path><path class="default" d="&#10;M 347.382390906,102.645646744&#10;A180,180 0 0 1 351.604817123,110.72905272&#10;L 270.802408561,150.36452636&#10;A90,90 0 0 0 268.691195453,146.322823372&#10;Z&#10;"><title>python-pillow &#10007;</title></path><path class="default" d="&#10;M 351.604817123,110.72905272&#10;A180,180 0 0 1 355.412406092,119.01594608&#10;L 272.706203046,154.50797304&#10;A90,90 0 0 0 270.802408561,150.36452636&#10;Z&#10;"><title>pycairo &#10007;</title></path><path class="default" d="&#10;M 355.412406092,119.01594608&#10;A180,180 0 0 1 358.795383786,127.485054488&#10;L 274.397691893,158.742527244&#10;A90,90 0 0 0 272.706203046,154.50797304&#10;Z&#10;"><title>libselinux &#10007;</title></path><path class="success" d="&#10;M 358.795383786,127.485054488&#10;A180,180 0 0 1 361.745066152,136.114637865&#10;L 275.872533076,163.057318932&#10;A90,90 0 0 0 274.397691893,158.742527244&#10;Z&#10;"><title>ibus-hangul &#10003;</title></path><path class="success" d="&#10;M 361.745066152,136.114637865&#10;A180,180 0 0 1 364.253881396,144.882544193&#10;L 277.126940698,167.441272097&#10;A90,90 0 0 0 275.872533076,163.057318932&#10;Z&#10;"><title>pykickstart &#10003;</title></path><path class="success" d="&#10;M 364.253881396,144.882544193&#10;A180,180 0 0 1 366.315389425,153.766266384&#10;L 278.157694713,171.883133192&#10;A90,90 0 0 0 277.126940698,167.441272097&#10;Z&#10;"><title>rpm &#10003;</title></path><path class="success" d="&#10;M 366.315389425,153.766266384&#10;A180,180 0 0 1 367.924298379,162.743000049&#10;L 278.96214919,176.371500025&#10;A90,90 0 0 0 278.157694713,171.883133192&#10;Z&#10;"><title>python-lxml &#10003;</title></path><path class="success" d="&#10;M 367.924298379,162.743000049&#10;A180,180 0 0 1 369.076478211,171.789702042&#10;L 279.538239105,180.894851021&#10;A90,90 0 0 0 278.96214919,176.371500025&#10;Z&#10;"><title>python-requests-file &#10003;</title></path><path class="success" d="&#10;M 369.076478211,171.789702042&#10;A180,180 0 0 1 369.768971291,180.883149609&#10;L 279.884485645,185.441574805&#10;A90,90 0 0 0 279.538239105,180.894851021&#10;Z&#10;"><title>python-meh &#10003;</title></path><path class="success" d="&#10;M 369.768971291,180.883149609&#10;A180,180 0 0 1 370.0,190.0&#10;L 280.0,190.0&#10;A90,90 0 0 0 279.884485645,185.441574805&#10;Z&#10;"><title>fros &#10003;</title></path><path class="success" d="&#10;M 370.0,190.0&#10;A180,180 0 0 1 369.768971291,199.116850391&#10;L 279.884485645,194.558425195&#10;A90,90 0 0 0 280.0,190.0&#10;Z&#10;"><title>langtable &#10003;</title></path><path class="success" d="&#10;M 369.768971291,199.116850391&#10;A180,180 0 0 1 369.076478211,208.210297958&#10;L 279.538239105,199.105148979&#10;A90,90 0 0 0 279.884485645,194.558425195&#10;Z&#10;"><title>python-ntplib &#10003;</title></path><path class="success" d="&#10;M 369.076478211,208.210297958&#10;A180,180 0 0 1 367.924298379,217.256999951&#10;L 278.96214919,203.628499975&#10;A90,90 0 0 0 279.538239105,199.105148979&#10;Z&#10;"><title>devassistant &#10003;</title></path><path class="success" d="&#10;M 367.924298379,217.256999951&#10;A180,180 0 0 1 366.315389425,226.233733616&#10;L 278.157694713,208.116866808&#10;A90,90 0 0 0 278.96214919,203.628499975&#10;Z&#10;"><title>bcache-tools &#10003;</title></path><path class="success" d="&#10;M 366.315389425,226.233733616&#10;A180,180 0 0 1 364.253881396,235.117455807&#10;L 277.126940698,212.558727903&#10;A90,90 0 0 0 278.157694713,208.116866808&#10;Z&#10;"><title>fedora-productimg-workstation &#10003;</title></path><path class="success" d="&#10;M 364.253881396,235.117455807&#10;A180,180 0 0 1 361.745066152,243.885362135&#10;L 275.872533076,216.942681068&#10;A90,90 0 0 0 277.126940698,212.558727903&#10;Z&#10;"><title>pyatspi &#10003;</title></path><path class="success" d="&#10;M 361.745066152,243.885362135&#10;A180,180 0 0 1 358.795383786,252.514945512&#10;L 274.397691893,221.257472756&#10;A90,90 0 0 0 275.872533076,216.942681068&#10;Z&#10;"><title>python-mako &#10003;</title></path><path class="success" d="&#10;M 358.795383786,252.514945512&#10;A180,180 0 0 1 355.412406092,260.98405392&#10;L 272.706203046,225.49202696&#10;A90,90 0 0 0 274.397691893,221.257472756&#10;Z&#10;"><title>ibus-libpinyin &#10003;</title></path><path class="success" d="&#10;M 355.412406092,260.98405392&#10;A180,180 0 0 1 351.604817123,269.27094728&#10;L 270.802408561,229.63547364&#10;A90,90 0 0 0 272.706203046,225.49202696&#10;Z&#10;"><title>python3-cairo &#10003;</title></path><path class="success" d="&#10;M 351.604817123,269.27094728&#10;A180,180 0 0 1 347.382390906,277.354353256&#10;L 268.691195453,233.677176628&#10;A90,90 0 0 0 270.802408561,229.63547364&#10;Z&#10;"><title>gnome-shell &#10003;</title></path><path class="success" d="&#10;M 347.382390906,277.354353256&#10;A180,180 0 0 1 342.755966349,285.213521859&#10;L 266.377983175,237.606760929&#10;A90,90 0 0 0 268.691195453,233.677176628&#10;Z&#10;"><title>environment-modules &#10003;</title></path><path class="success" d="&#10;M 342.755966349,285.213521859&#10;A180,180 0 0 1 337.737419417,292.828278717&#10;L 263.868709709,241.414139359&#10;A90,90 0 0 0 266.377983175,237.606760929&#10;Z&#10;"><title>libsemanage &#10003;</title></path><path class="success" d="&#10;M 337.737419417,292.828278717&#10;A180,180 0 0 1 332.339632649,300.179076859&#10;L 261.169816324,245.089538429&#10;A90,90 0 0 0 263.868709709,241.414139359&#10;Z&#10;"><title>python-augeas &#10003;</title></path><path class="success" d="&#10;M 332.339632649,300.179076859&#10;A180,180 0 0 1 326.576462085,307.24704689&#10;L 258.288231042,248.623523445&#10;A90,90 0 0 0 261.169816324,245.089538429&#10;Z&#10;"><title>python-systemd &#10003;</title></path><path class="success" d="&#10;M 326.576462085,307.24704689&#10;A180,180 0 0 1 320.462701701,314.014045434&#10;L 255.231350851,252.007022717&#10;A90,90 0 0 0 258.288231042,248.623523445&#10;Z&#10;"><title>python-iniparse &#10003;</title></path><path class="success" d="&#10;M 320.462701701,314.014045434&#10;A180,180 0 0 1 314.014045434,320.462701701&#10;L 252.007022717,255.231350851&#10;A90,90 0 0 0 255.231350851,252.007022717&#10;Z&#10;"><title>python-cssselect &#10003;</title></path><path class="success" d="&#10;M 314.014045434,320.462701701&#10;A180,180 0 0 1 307.24704689,326.576462085&#10;L 248.623523445,258.288231042&#10;A90,90 0 0 0 252.007022717,255.231350851&#10;Z&#10;"><title>python-IPy &#10003;</title></path><path class="success" d="&#10;M 307.24704689,326.576462085&#10;A180,180 0 0 1 300.179076859,332.339632649&#10;L 245.089538429,261.169816324&#10;A90,90 0 0 0 248.623523445,258.288231042&#10;Z&#10;"><title>gnome-abrt &#10003;</title></path><path class="success" d="&#10;M 300.179076859,332.339632649&#10;A180,180 0 0 1 292.828278717,337.737419417&#10;L 241.414139359,263.868709709&#10;A90,90 0 0 0 245.089538429,261.169816324&#10;Z&#10;"><title>system-config-printer &#10003;</title></path><path class="success" d="&#10;M 292.828278717,337.737419417&#10;A180,180 0 0 1 285.213521859,342.755966349&#10;L 237.606760929,266.377983175&#10;A90,90 0 0 0 241.414139359,263.868709709&#10;Z&#10;"><title>python-coverage &#10003;</title></path><path class="success" d="&#10;M 285.213521859,342.755966349&#10;A180,180 0 0 1 277.354353256,347.382390906&#10;L 233.677176628,268.691195453&#10;A90,90 0 0 0 237.606760929,266.377983175&#10;Z&#10;"><title>rhythmbox &#10003;</title></path><path class="success" d="&#10;M 277.354353256,347.382390906&#10;A180,180 0 0 1 269.27094728,351.604817123&#10;L 229.63547364,270.802408561&#10;A90,90 0 0 0 233.677176628,268.691195453&#10;Z&#10;"><title>python-markupsafe &#10003;</title></path><path class="success" d="&#10;M 269.27094728,351.604817123&#10;A180,180 0 0 1 260.98405392,355.412406092&#10;L 225.49202696,272.706203046&#10;A90,90 0 0 0 229.63547364,270.802408561&#10;Z&#10;"><title>python-slip &#10003;</title></path><path class="success" d="&#10;M 260.98405392,355.412406092&#10;A180,180 0 0 1 252.514945512,358.795383786&#10;L 221.257472756,274.397691893&#10;A90,90 0 0 0 225.49202696,272.706203046&#10;Z&#10;"><title>python-jinja2 &#10003;</title></path><path class="success" d="&#10;M 252.514945512,358.795383786&#10;A180,180 0 0 1 243.885362135,361.745066152&#10;L 216.942681068,275.872533076&#10;A90,90 0 0 0 221.257472756,274.397691893&#10;Z&#10;"><title>anaconda &#10003;</title></path><path class="success" d="&#10;M 243.885362135,361.745066152&#10;A180,180 0 0 1 235.117455807,364.253881396&#10;L 212.558727903,277.126940698&#10;A90,90 0 0 0 216.942681068,275.872533076&#10;Z&#10;"><title>libcomps &#10003;</title></path><path class="success" d="&#10;M 235.117455807,364.253881396&#10;A180,180 0 0 1 226.233733616,366.315389425&#10;L 208.116866808,278.157694713&#10;A90,90 0 0 0 212.558727903,277.126940698&#10;Z&#10;"><title>gdb &#10003;</title></path><path class="success" d="&#10;M 226.233733616,366.315389425&#10;A180,180 0 0 1 217.256999951,367.924298379&#10;L 203.628499975,278.96214919&#10;A90,90 0 0 0 208.116866808,278.157694713&#10;Z&#10;"><title>pyparted &#10003;</title></path><path class="success" d="&#10;M 217.256999951,367.924298379&#10;A180,180 0 0 1 208.210297958,369.076478211&#10;L 199.105148979,279.538239105&#10;A90,90 0 0 0 203.628499975,278.96214919&#10;Z&#10;"><title>python-humanize &#10003;</title></path><path class="success" d="&#10;M 208.210297958,369.076478211&#10;A180,180 0 0 1 199.116850391,369.768971291&#10;L 194.558425195,279.884485645&#10;A90,90 0 0 0 199.105148979,279.538239105&#10;Z&#10;"><title>iscsi-initiator-utils &#10003;</title></path><path class="success" d="&#10;M 199.116850391,369.768971291&#10;A180,180 0 0 1 190.0,370.0&#10;L 190.0,280.0&#10;A90,90 0 0 0 194.558425195,279.884485645&#10;Z&#10;"><title>python-requests-ftp &#10003;</title></path><path class="success" d="&#10;M 190.0,370.0&#10;A180,180 0 0 1 180.883149609,369.768971291&#10;L 185.441574805,279.884485645&#10;A90,90 0 0 0 190.0,280.0&#10;Z&#10;"><title>python-requests &#10003;</title></path><path class="success" d="&#10;M 180.883149609,369.768971291&#10;A180,180 0 0 1 171.789702042,369.076478211&#10;L 180.894851021,279.538239105&#10;A90,90 0 0 0 185.441574805,279.884485645&#10;Z&#10;"><title>glade &#10003;</title></path><path class="success" d="&#10;M 171.789702042,369.076478211&#10;A180,180 0 0 1 162.743000049,367.924298379&#10;L 176.371500025,278.96214919&#10;A90,90 0 0 0 180.894851021,279.538239105&#10;Z&#10;"><title>policycoreutils &#10003;</title></path><path class="success" d="&#10;M 162.743000049,367.924298379&#10;A180,180 0 0 1 153.766266384,366.315389425&#10;L 171.883133192,278.157694713&#10;A90,90 0 0 0 176.371500025,278.96214919&#10;Z&#10;"><title>python-six &#10003;</title></path><path class="success" d="&#10;M 153.766266384,366.315389425&#10;A180,180 0 0 1 144.882544193,364.253881396&#10;L 167.441272097,277.126940698&#10;A90,90 0 0 0 171.883133192,278.157694713&#10;Z&#10;"><title>python-chardet &#10003;</title></path><path class="success" d="&#10;M 144.882544193,364.253881396&#10;A180,180 0 0 1 136.114637865,361.745066152&#10;L 163.057318932,275.872533076&#10;A90,90 0 0 0 167.441272097,277.126940698&#10;Z&#10;"><title>speech-dispatcher &#10003;</title></path><path class="success" d="&#10;M 136.114637865,361.745066152&#10;A180,180 0 0 1 127.485054488,358.795383786&#10;L 158.742527244,274.397691893&#10;A90,90 0 0 0 163.057318932,275.872533076&#10;Z&#10;"><title>dnf &#10003;</title></path><path class="success" d="&#10;M 127.485054488,358.795383786&#10;A180,180 0 0 1 119.01594608,355.412406092&#10;L 154.50797304,272.706203046&#10;A90,90 0 0 0 158.742527244,274.397691893&#10;Z&#10;"><title>audit &#10003;</title></path><path class="success" d="&#10;M 119.01594608,355.412406092&#10;A180,180 0 0 1 110.72905272,351.604817123&#10;L 150.36452636,270.802408561&#10;A90,90 0 0 0 154.50797304,272.706203046&#10;Z&#10;"><title>libreoffice &#10003;</title></path><path class="success" d="&#10;M 110.72905272,351.604817123&#10;A180,180 0 0 1 102.645646744,347.382390906&#10;L 146.322823372,268.691195453&#10;A90,90 0 0 0 150.36452636,270.802408561&#10;Z&#10;"><title>python-decorator &#10003;</title></path><path class="success" d="&#10;M 102.645646744,347.382390906&#10;A180,180 0 0 1 94.7864781411,342.755966349&#10;L 142.393239071,266.377983175&#10;A90,90 0 0 0 146.322823372,268.691195453&#10;Z&#10;"><title>python3 &#10003;</title></path><path class="success" d="&#10;M 94.7864781411,342.755966349&#10;A180,180 0 0 1 87.1717212829,337.737419417&#10;L 138.585860641,263.868709709&#10;A90,90 0 0 0 142.393239071,266.377983175&#10;Z&#10;"><title>python-cups &#10003;</title></path><path class="success" d="&#10;M 87.1717212829,337.737419417&#10;A180,180 0 0 1 79.8209231414,332.339632649&#10;L 134.910461571,261.169816324&#10;A90,90 0 0 0 138.585860641,263.868709709&#10;Z&#10;"><title>libpeas &#10003;</title></path><path class="success" d="&#10;M 79.8209231414,332.339632649&#10;A180,180 0 0 1 72.75295311,326.576462085&#10;L 131.376476555,258.288231042&#10;A90,90 0 0 0 134.910461571,261.169816324&#10;Z&#10;"><title>firewalld &#10003;</title></path><path class="success" d="&#10;M 72.75295311,326.576462085&#10;A180,180 0 0 1 65.9859545664,320.462701701&#10;L 127.992977283,255.231350851&#10;A90,90 0 0 0 131.376476555,258.288231042&#10;Z&#10;"><title>hplip &#10003;</title></path><path class="success" d="&#10;M 65.9859545664,320.462701701&#10;A180,180 0 0 1 59.5372982988,314.014045434&#10;L 124.768649149,252.007022717&#10;A90,90 0 0 0 127.992977283,255.231350851&#10;Z&#10;"><title>caribou &#10003;</title></path><path class="success" d="&#10;M 59.5372982988,314.014045434&#10;A180,180 0 0 1 53.4235379153,307.24704689&#10;L 121.711768958,248.623523445&#10;A90,90 0 0 0 124.768649149,252.007022717&#10;Z&#10;"><title>python-pycurl &#10003;</title></path><path class="success" d="&#10;M 53.4235379153,307.24704689&#10;A180,180 0 0 1 47.6603673512,300.179076859&#10;L 118.830183676,245.089538429&#10;A90,90 0 0 0 121.711768958,248.623523445&#10;Z&#10;"><title>abrt &#10003;</title></path><path class="success" d="&#10;M 47.6603673512,300.179076859&#10;A180,180 0 0 1 42.2625805827,292.828278717&#10;L 116.131290291,241.414139359&#10;A90,90 0 0 0 118.830183676,245.089538429&#10;Z&#10;"><title>python-pyudev &#10003;</title></path><path class="success" d="&#10;M 42.2625805827,292.828278717&#10;A180,180 0 0 1 37.2440336509,285.213521859&#10;L 113.622016825,237.606760929&#10;A90,90 0 0 0 116.131290291,241.414139359&#10;Z&#10;"><title>gettext &#10003;</title></path><path class="success" d="&#10;M 37.2440336509,285.213521859&#10;A180,180 0 0 1 32.617609094,277.354353256&#10;L 111.308804547,233.677176628&#10;A90,90 0 0 0 113.622016825,237.606760929&#10;Z&#10;"><title>python-setuptools &#10003;</title></path><path class="success" d="&#10;M 32.617609094,277.354353256&#10;A180,180 0 0 1 28.3951828773,269.27094728&#10;L 109.197591439,229.63547364&#10;A90,90 0 0 0 111.308804547,233.677176628&#10;Z&#10;"><title>dnf-plugins-core &#10003;</title></path><path class="success" d="&#10;M 28.3951828773,269.27094728&#10;A180,180 0 0 1 24.5875939084,260.98405392&#10;L 107.293796954,225.49202696&#10;A90,90 0 0 0 109.197591439,229.63547364&#10;Z&#10;"><title>dbus-python &#10003;</title></path><path class="success" d="&#10;M 24.5875939084,260.98405392&#10;A180,180 0 0 1 21.2046162135,252.514945512&#10;L 105.602308107,221.257472756&#10;A90,90 0 0 0 107.293796954,225.49202696&#10;Z&#10;"><title>authconfig &#10003;</title></path><path class="success" d="&#10;M 21.2046162135,252.514945512&#10;A180,180 0 0 1 18.254933848,243.885362135&#10;L 104.127466924,216.942681068&#10;A90,90 0 0 0 105.602308107,221.257472756&#10;Z&#10;"><title>javapackages-tools &#10003;</title></path><path class="success" d="&#10;M 18.254933848,243.885362135&#10;A180,180 0 0 1 15.7461186041,235.117455807&#10;L 102.873059302,212.558727903&#10;A90,90 0 0 0 104.127466924,216.942681068&#10;Z&#10;"><title>pidgin &#10003;</title></path><path class="success" d="&#10;M 15.7461186041,235.117455807&#10;A180,180 0 0 1 13.6846105746,226.233733616&#10;L 101.842305287,208.116866808&#10;A90,90 0 0 0 102.873059302,212.558727903&#10;Z&#10;"><title>pygpgme &#10003;</title></path><path class="success" d="&#10;M 13.6846105746,226.233733616&#10;A180,180 0 0 1 12.0757016209,217.256999951&#10;L 101.03785081,203.628499975&#10;A90,90 0 0 0 101.842305287,208.116866808&#10;Z&#10;"><title>sos &#10003;</title></path><path class="success" d="&#10;M 12.0757016209,217.256999951&#10;A180,180 0 0 1 10.9235217895,208.210297958&#10;L 100.461760895,199.105148979&#10;A90,90 0 0 0 101.03785081,203.628499975&#10;Z&#10;"><title>gedit &#10003;</title></path><path class="success" d="&#10;M 10.9235217895,208.210297958&#10;A180,180 0 0 1 10.2310287092,199.116850391&#10;L 100.115514355,194.558425195&#10;A90,90 0 0 0 100.461760895,199.105148979&#10;Z&#10;"><title>librepo &#10003;</title></path><path class="success" d="&#10;M 10.2310287092,199.116850391&#10;A180,180 0 0 1 10.0,190.0&#10;L 100.0,190.0&#10;A90,90 0 0 0 100.115514355,194.558425195&#10;Z&#10;"><title>python-beaker &#10003;</title></path><path class="success" d="&#10;M 10.0,190.0&#10;A180,180 0 0 1 10.2310287092,180.883149609&#10;L 100.115514355,185.441574805&#10;A90,90 0 0 0 100.0,190.0&#10;Z&#10;"><title>python-blivet &#10003;</title></path><path class="success" d="&#10;M 10.2310287092,180.883149609&#10;A180,180 0 0 1 10.9235217895,171.789702042&#10;L 100.461760895,180.894851021&#10;A90,90 0 0 0 100.115514355,185.441574805&#10;Z&#10;"><title>unoconv &#10003;</title></path><path class="success" d="&#10;M 10.9235217895,171.789702042&#10;A180,180 0 0 1 12.0757016209,162.743000049&#10;L 101.03785081,176.371500025&#10;A90,90 0 0 0 100.461760895,180.894851021&#10;Z&#10;"><title>telepathy-gabble &#10003;</title></path><path class="success" d="&#10;M 12.0757016209,162.743000049&#10;A180,180 0 0 1 13.6846105746,153.766266384&#10;L 101.842305287,171.883133192&#10;A90,90 0 0 0 101.03785081,176.371500025&#10;Z&#10;"><title>liblouis &#10003;</title></path><path class="success" d="&#10;M 13.6846105746,153.766266384&#10;A180,180 0 0 1 15.7461186041,144.882544193&#10;L 102.873059302,167.441272097&#10;A90,90 0 0 0 101.842305287,171.883133192&#10;Z&#10;"><title>python-dmidecode &#10003;</title></path><path class="success" d="&#10;M 15.7461186041,144.882544193&#10;A180,180 0 0 1 18.254933848,136.114637865&#10;L 104.127466924,163.057318932&#10;A90,90 0 0 0 102.873059302,167.441272097&#10;Z&#10;"><title>pyxdg &#10003;</title></path><path class="success" d="&#10;M 18.254933848,136.114637865&#10;A180,180 0 0 1 21.2046162135,127.485054488&#10;L 105.602308107,158.742527244&#10;A90,90 0 0 0 104.127466924,163.057318932&#10;Z&#10;"><title>python-enchant &#10003;</title></path><path class="success" d="&#10;M 21.2046162135,127.485054488&#10;A180,180 0 0 1 24.5875939084,119.01594608&#10;L 107.293796954,154.50797304&#10;A90,90 0 0 0 105.602308107,158.742527244&#10;Z&#10;"><title>pygobject3 &#10003;</title></path><path class="success" d="&#10;M 24.5875939084,119.01594608&#10;A180,180 0 0 1 28.3951828773,110.72905272&#10;L 109.197591439,150.36452636&#10;A90,90 0 0 0 107.293796954,154.50797304&#10;Z&#10;"><title>newt &#10003;</title></path><path class="success" d="&#10;M 28.3951828773,110.72905272&#10;A180,180 0 0 1 32.617609094,102.645646744&#10;L 111.308804547,146.322823372&#10;A90,90 0 0 0 109.197591439,150.36452636&#10;Z&#10;"><title>pytz &#10003;</title></path><path class="success" d="&#10;M 32.617609094,102.645646744&#10;A180,180 0 0 1 37.2440336509,94.7864781411&#10;L 113.622016825,142.393239071&#10;A90,90 0 0 0 111.308804547,146.322823372&#10;Z&#10;"><title>python-urllib3 &#10003;</title></path><path class="success" d="&#10;M 37.2440336509,94.7864781411&#10;A180,180 0 0 1 42.2625805827,87.1717212829&#10;L 116.131290291,138.585860641&#10;A90,90 0 0 0 113.622016825,142.393239071&#10;Z&#10;"><title>hawkey &#10003;</title></path><path class="success" d="&#10;M 42.2625805827,87.1717212829&#10;A180,180 0 0 1 47.6603673512,79.8209231414&#10;L 118.830183676,134.910461571&#10;A90,90 0 0 0 116.131290291,138.585860641&#10;Z&#10;"><title>PyYAML &#10003;</title></path><path class="success" d="&#10;M 47.6603673512,79.8209231414&#10;A180,180 0 0 1 53.4235379153,72.75295311&#10;L 121.711768958,131.376476555&#10;A90,90 0 0 0 118.830183676,134.910461571&#10;Z&#10;"><title>python-dapp &#10003;</title></path><path class="success" d="&#10;M 53.4235379153,72.75295311&#10;A180,180 0 0 1 59.5372982988,65.9859545664&#10;L 124.768649149,127.992977283&#10;A90,90 0 0 0 121.711768958,131.376476555&#10;Z&#10;"><title>totem &#10003;</title></path><path class="success" d="&#10;M 59.5372982988,65.9859545664&#10;A180,180 0 0 1 65.9859545664,59.5372982988&#10;L 127.992977283,124.768649149&#10;A90,90 0 0 0 124.768649149,127.992977283&#10;Z&#10;"><title>ibus-typing-booster &#10003;</title></path><path class="success" d="&#10;M 65.9859545664,59.5372982988&#10;A180,180 0 0 1 72.75295311,53.4235379153&#10;L 131.376476555,121.711768958&#10;A90,90 0 0 0 127.992977283,124.768649149&#10;Z&#10;"><title>libreport &#10003;</title></path><path class="success" d="&#10;M 72.75295311,53.4235379153&#10;A180,180 0 0 1 79.8209231414,47.6603673512&#10;L 134.910461571,118.830183676&#10;A90,90 0 0 0 131.376476555,121.711768958&#10;Z&#10;"><title>libuser &#10003;</title></path><path class="success" d="&#10;M 79.8209231414,47.6603673512&#10;A180,180 0 0 1 87.1717212829,42.2625805827&#10;L 138.585860641,116.131290291&#10;A90,90 0 0 0 134.910461571,118.830183676&#10;Z&#10;"><title>python-inotify &#10003;</title></path><path class="success" d="&#10;M 87.1717212829,42.2625805827&#10;A180,180 0 0 1 94.7864781411,37.2440336509&#10;L 142.393239071,113.622016825&#10;A90,90 0 0 0 138.585860641,116.131290291&#10;Z&#10;"><title>python-pip &#10003;</title></path><path class="success" d="&#10;M 94.7864781411,37.2440336509&#10;A180,180 0 0 1 102.645646744,32.617609094&#10;L 146.322823372,111.308804547&#10;A90,90 0 0 0 142.393239071,113.622016825&#10;Z&#10;"><title>sssd &#10003;</title></path><path class="success" d="&#10;M 102.645646744,32.617609094&#10;A180,180 0 0 1 110.72905272,28.3951828773&#10;L 150.36452636,109.197591439&#10;A90,90 0 0 0 146.322823372,111.308804547&#10;Z&#10;"><title>python-PyGithub &#10003;</title></path><path class="success" d="&#10;M 110.72905272,28.3951828773&#10;A180,180 0 0 1 119.01594608,24.5875939084&#10;L 154.50797304,107.293796954&#10;A90,90 0 0 0 150.36452636,109.197591439&#10;Z&#10;"><title>libpwquality &#10003;</title></path><path class="success" d="&#10;M 119.01594608,24.5875939084&#10;A180,180 0 0 1 127.485054488,21.2046162135&#10;L 158.742527244,105.602308107&#10;A90,90 0 0 0 154.50797304,107.293796954&#10;Z&#10;"><title>python-progress &#10003;</title></path><path class="success" d="&#10;M 127.485054488,21.2046162135&#10;A180,180 0 0 1 136.114637865,18.254933848&#10;L 163.057318932,104.127466924&#10;A90,90 0 0 0 158.742527244,105.602308107&#10;Z&#10;"><title>bind &#10003;</title></path><path class="success" d="&#10;M 136.114637865,18.254933848&#10;A180,180 0 0 1 144.882544193,15.7461186041&#10;L 167.441272097,102.873059302&#10;A90,90 0 0 0 163.057318932,104.127466924&#10;Z&#10;"><title>brltty &#10003;</title></path><path class="success" d="&#10;M 144.882544193,15.7461186041&#10;A180,180 0 0 1 153.766266384,13.6846105746&#10;L 171.883133192,101.842305287&#10;A90,90 0 0 0 167.441272097,102.873059302&#10;Z&#10;"><title>libselinux &#10003;</title></path><path class="success" d="&#10;M 153.766266384,13.6846105746&#10;A180,180 0 0 1 162.743000049,12.0757016209&#10;L 176.371500025,101.03785081&#10;A90,90 0 0 0 171.883133192,101.842305287&#10;Z&#10;"><title>ibus &#10003;</title></path><path class="success" d="&#10;M 162.743000049,12.0757016209&#10;A180,180 0 0 1 171.789702042,10.9235217895&#10;L 180.894851021,100.461760895&#10;A90,90 0 0 0 176.371500025,101.03785081&#10;Z&#10;"><title>python-pillow &#10003;</title></path><path class="success" d="&#10;M 171.789702042,10.9235217895&#10;A180,180 0 0 1 180.883149609,10.2310287092&#10;L 185.441574805,100.115514355&#10;A90,90 0 0 0 180.894851021,100.461760895&#10;Z&#10;"><title>gutenprint &#10003;</title></path><path class="success" d="&#10;M 180.883149609,10.2310287092&#10;A180,180 0 0 1 190.0,10.0&#10;L 190.0,100.0&#10;A90,90 0 0 0 185.441574805,100.115514355&#10;Z&#10;"><title>orca &#10003;</title></path><text dominant-baseline="central" fill="#333333" font-family="&quot;Helvetica Neue&quot;,Helvetica,Arial,sans-serif" font-size="40" text-anchor="middle" x="190" y="170">100</text><line stroke="#333333" stroke-width="2" x1="150" x2="230" y1="190" y2="190" /><text dominant-baseline="central" fill="#333333" font-family="&quot;Helvetica Neue&quot;,Helvetica,Arial,sans-serif" font-size="40" text-anchor="middle" x="190" y="210">124</text></svg>